
    <svg xmlns="http://www.w3.org/2000/svg" height="128" width="128" viewBox="0 0 32 32" xmlns:xlink="http://www.w3.org/1999/xlink">
    
    <g id="shoes" style="stroke:Black;">
        <line x1="7" y1="31" x2="9" y2="31" />
        <line x1="18" y1="31" x2="20" y2="31" />
    </g>

    <g id="horse" style="stroke:Brown;">
        <g id="backleg">
            <line x1="7" y1="30" x2="9" y2="30" />
            <line x1="7" y1="29" x2="9" y2="29" />
            <line x1="7" y1="28" x2="9" y2="28" />
            <line x1="7" y1="27" x2="9" y2="27" />
            <line x1="7" y1="26" x2="9" y2="26" />
            <line x1="7" y1="25" x2="9" y2="25" />
            <line x1="7" y1="24" x2="9" y2="24" />
            <line x1="6" y1="23" x2="10" y2="23" />
        </g>
        <g id="frontleg">
            <line x1="18" y1="30" x2="20" y2="30" />
            <line x1="18" y1="29" x2="20" y2="29" />
            <line x1="18" y1="28" x2="20" y2="28" />
            <line x1="18" y1="27" x2="20" y2="27" />
            <line x1="18" y1="26" x2="20" y2="26" />
            <line x1="18" y1="25" x2="20" y2="25" />
            <line x1="18" y1="24" x2="20" y2="24" />
            <line x1="17" y1="23" x2="21" y2="23" />
        </g>
        <g id="core">
            <line x1="6" y1="22" x2="21" y2="22" />
            <line x1="5" y1="21" x2="22" y2="21" />
            <line x1="5" y1="20" x2="22" y2="20" />
            <line x1="5" y1="19" x2="22" y2="19" />
            <line x1="5" y1="18" x2="22" y2="18" />
            <line x1="5" y1="17" x2="22" y2="17" />
            <line x1="6" y1="16" x2="23" y2="16" />
            <line x1="8" y1="15" x2="24" y2="15" />
            <line x1="20" y1="14" x2="25" y2="14" />
        </g>
        <g id="head">
            <line x1="28" y1="15" x2="30" y2="15" />
            <line x1="27" y1="14" x2="31" y2="14" />
            <line x1="21" y1="13" x2="31" y2="13" />
            <line x1="22" y1="12" x2="30" y2="12" />
            <line x1="23" y1="11" x2="29" y2="11" />
            <line x1="23" y1="10" x2="28" y2="10" />
            <line x1="25" y1="9" x2="27" y2="9" />
        </g>
        <g id="ear">
            <line x1="22" y1="9" x2="24" y2="9" />
            <line x1="22" y1="8" x2="23" y2="8" />
        </g>
    </g>

    <g id="eye" style="stroke:Red;">
        <line x1="26" y1="11" x2="27" y2="11" />
    </g>
    
    <g id="tail" style="stroke:Green;">
        <line x1="1" y1="23" x2="2" y2="23" />
        <line x1="0" y1="22" x2="2" y2="22" />
        <line x1="0" y1="21" x2="3" y2="21" />
        <line x1="1" y1="20" x2="3" y2="20" />
        <line x1="1" y1="19" x2="4" y2="19" />
        <line x1="2" y1="18" x2="4" y2="18" />
        <line x1="2" y1="17" x2="4" y2="17" />
        <line x1="3" y1="16" x2="6" y2="16" />
        <line x1="3" y1="15" x2="7" y2="15" />
        <line x1="4" y1="14" x2="6" y2="14" />
    </g>
    <g id="mane" style="stroke:Gold;">
        <line x1="18" y1="15" x2="19" y2="15" />
        <line x1="17" y1="14" x2="20" y2="14" />
        <line x1="18" y1="13" x2="21" y2="13" />
        <line x1="19" y1="12" x2="22" y2="12" />
        <line x1="20" y1="11" x2="23" y2="11" />
        <line x1="21" y1="10" x2="23" y2="10" />
        <line x1="25" y1="10" x2="28" y2="10" />
        <line x1="24" y1="9" x2="27" y2="9" />
        <line x1="24" y1="8" x2="26" y2="8" />
    </g>
    
    
    
</svg>